<?xml version="1.0" encoding="UTF-8" standalone="no"?>
<!-- Created with Inkscape (http://www.inkscape.org/) -->

<svg
   xmlns:dc="http://purl.org/dc/elements/1.1/"
   xmlns:cc="http://creativecommons.org/ns#"
   xmlns:rdf="http://www.w3.org/1999/02/22-rdf-syntax-ns#"
   xmlns:svg="http://www.w3.org/2000/svg"
   xmlns="http://www.w3.org/2000/svg"
   xmlns:xlink="http://www.w3.org/1999/xlink"
   xmlns:sodipodi="http://sodipodi.sourceforge.net/DTD/sodipodi-0.dtd"
   xmlns:inkscape="http://www.inkscape.org/namespaces/inkscape"
   width="10"
   height="400"
   viewBox="0 0 2.6458333 105.83333"
   version="1.1"
   id="svg8"
   inkscape:version="0.92.2 (5c3e80d, 2017-08-06)"
   sodipodi:docname="separator.svg">
  <defs
     id="defs2" />
  <sodipodi:namedview
     id="base"
     pagecolor="#000000"
     bordercolor="#666666"
     borderopacity="1.0"
     inkscape:pageopacity="0"
     inkscape:pageshadow="2"
     inkscape:zoom="0.49497475"
     inkscape:cx="42.521655"
     inkscape:cy="730.04829"
     inkscape:document-units="mm"
     inkscape:current-layer="layer1"
     showgrid="false"
     units="px"
     width="10px"
     inkscape:window-width="1853"
     inkscape:window-height="1025"
     inkscape:window-x="67"
     inkscape:window-y="27"
     inkscape:window-maximized="1"
     fit-margin-top="0"
     fit-margin-left="0"
     fit-margin-right="0"
     fit-margin-bottom="0" />
  <metadata
     id="metadata5">
    <rdf:RDF>
      <cc:Work
         rdf:about="">
        <dc:format>image/svg+xml</dc:format>
        <dc:type
           rdf:resource="http://purl.org/dc/dcmitype/StillImage" />
        <dc:title></dc:title>
      </cc:Work>
    </rdf:RDF>
  </metadata>
  <g
     inkscape:label="Layer 1"
     inkscape:groupmode="layer"
     id="layer1"
     transform="translate(0,-357.85558)">
    <rect
       style="fill:#ffffff;stroke-width:0.25247529"
       id="rect10"
       width="2.6458333"
       height="2.6458333"
       x="0"
       y="127.66808"
       inkscape:tile-cx="1.3229166"
       inkscape:tile-cy="1.3243298"
       inkscape:tile-w="2.6458332"
       inkscape:tile-h="2.6458332"
       inkscape:tile-x0="0"
       inkscape:tile-y0="0.0014131909" />
    <path
       style="fill:#ffffff;stroke-width:0.25253814"
       d=""
       id="path3701"
       inkscape:connector-curvature="0"
       transform="matrix(0.26458333,0,0,0.26458333,0,127.66667)" />
    <path
       style="fill:#ffffff;stroke-width:0.25253814"
       d=""
       id="path3703"
       inkscape:connector-curvature="0"
       transform="matrix(0.26458333,0,0,0.26458333,0,127.66667)" />
    <path
       style="fill:#ffffff;stroke-width:0.25253814"
       d=""
       id="path3705"
       inkscape:connector-curvature="0"
       transform="matrix(0.26458333,0,0,0.26458333,0,127.66667)" />
    <use
       x="0"
       y="0"
       inkscape:tiled-clone-of="#rect10"
       xlink:href="#rect10"
       id="use4518"
       width="100%"
       height="100%" />
    <use
       x="0"
       y="0"
       inkscape:tiled-clone-of="#rect10"
       xlink:href="#rect10"
       transform="translate(0,5.2916664)"
       id="use4520"
       width="100%"
       height="100%" />
    <use
       x="0"
       y="0"
       inkscape:tiled-clone-of="#rect10"
       xlink:href="#rect10"
       transform="translate(0,10.583333)"
       id="use4522"
       width="100%"
       height="100%" />
    <use
       x="0"
       y="0"
       inkscape:tiled-clone-of="#rect10"
       xlink:href="#rect10"
       transform="translate(0,15.874999)"
       id="use4524"
       width="100%"
       height="100%" />
    <use
       x="0"
       y="0"
       inkscape:tiled-clone-of="#rect10"
       xlink:href="#rect10"
       transform="translate(0,21.166666)"
       id="use4526"
       width="100%"
       height="100%" />
    <use
       x="0"
       y="0"
       inkscape:tiled-clone-of="#rect10"
       xlink:href="#rect10"
       transform="translate(0,26.458332)"
       id="use4528"
       width="100%"
       height="100%" />
    <use
       x="0"
       y="0"
       inkscape:tiled-clone-of="#rect10"
       xlink:href="#rect10"
       transform="translate(0,31.749999)"
       id="use4530"
       width="100%"
       height="100%" />
    <use
       x="0"
       y="0"
       inkscape:tiled-clone-of="#rect10"
       xlink:href="#rect10"
       transform="translate(0,37.041665)"
       id="use4532"
       width="100%"
       height="100%" />
    <use
       x="0"
       y="0"
       inkscape:tiled-clone-of="#rect10"
       xlink:href="#rect10"
       transform="translate(0,42.333332)"
       id="use4534"
       width="100%"
       height="100%" />
    <use
       x="0"
       y="0"
       inkscape:tiled-clone-of="#rect10"
       xlink:href="#rect10"
       transform="translate(0,47.624998)"
       id="use4536"
       width="100%"
       height="100%" />
    <use
       x="0"
       y="0"
       inkscape:tiled-clone-of="#rect10"
       xlink:href="#rect10"
       transform="translate(0,52.916664)"
       id="use4538"
       width="100%"
       height="100%" />
    <use
       x="0"
       y="0"
       inkscape:tiled-clone-of="#rect10"
       xlink:href="#rect10"
       transform="translate(0,58.208331)"
       id="use4540"
       width="100%"
       height="100%" />
    <use
       x="0"
       y="0"
       inkscape:tiled-clone-of="#rect10"
       xlink:href="#rect10"
       transform="translate(0,63.499997)"
       id="use4542"
       width="100%"
       height="100%" />
    <use
       x="0"
       y="0"
       inkscape:tiled-clone-of="#rect10"
       xlink:href="#rect10"
       transform="translate(0,68.791664)"
       id="use4544"
       width="100%"
       height="100%" />
    <use
       x="0"
       y="0"
       inkscape:tiled-clone-of="#rect10"
       xlink:href="#rect10"
       transform="translate(0,74.08333)"
       id="use4546"
       width="100%"
       height="100%" />
    <use
       x="0"
       y="0"
       inkscape:tiled-clone-of="#rect10"
       xlink:href="#rect10"
       transform="translate(0,79.374997)"
       id="use4548"
       width="100%"
       height="100%" />
    <use
       x="0"
       y="0"
       inkscape:tiled-clone-of="#rect10"
       xlink:href="#rect10"
       transform="translate(0,84.666663)"
       id="use4550"
       width="100%"
       height="100%" />
    <use
       x="0"
       y="0"
       inkscape:tiled-clone-of="#rect10"
       xlink:href="#rect10"
       transform="translate(0,89.958329)"
       id="use4552"
       width="100%"
       height="100%" />
    <use
       x="0"
       y="0"
       inkscape:tiled-clone-of="#rect10"
       xlink:href="#rect10"
       transform="translate(0,95.249996)"
       id="use4554"
       width="100%"
       height="100%" />
    <use
       x="0"
       y="0"
       inkscape:tiled-clone-of="#rect10"
       xlink:href="#rect10"
       transform="translate(0,100.54166)"
       id="use4556"
       width="100%"
       height="100%" />
    <use
       x="0"
       y="0"
       inkscape:tiled-clone-of="#rect10"
       xlink:href="#rect10"
       transform="translate(0,105.83333)"
       id="use4558"
       width="100%"
       height="100%" />
    <use
       x="0"
       y="0"
       inkscape:tiled-clone-of="#rect10"
       xlink:href="#rect10"
       transform="translate(0,111.125)"
       id="use4560"
       width="100%"
       height="100%" />
    <use
       x="0"
       y="0"
       inkscape:tiled-clone-of="#rect10"
       xlink:href="#rect10"
       transform="translate(0,116.41666)"
       id="use4562"
       width="100%"
       height="100%" />
    <use
       x="0"
       y="0"
       inkscape:tiled-clone-of="#rect10"
       xlink:href="#rect10"
       transform="translate(0,121.70833)"
       id="use4564"
       width="100%"
       height="100%" />
    <use
       x="0"
       y="0"
       inkscape:tiled-clone-of="#rect10"
       xlink:href="#rect10"
       transform="translate(0,126.99999)"
       id="use4566"
       width="100%"
       height="100%" />
    <use
       x="0"
       y="0"
       inkscape:tiled-clone-of="#rect10"
       xlink:href="#rect10"
       transform="translate(0,132.29166)"
       id="use4568"
       width="100%"
       height="100%" />
    <use
       x="0"
       y="0"
       inkscape:tiled-clone-of="#rect10"
       xlink:href="#rect10"
       transform="translate(0,137.58333)"
       id="use4570"
       width="100%"
       height="100%" />
    <use
       x="0"
       y="0"
       inkscape:tiled-clone-of="#rect10"
       xlink:href="#rect10"
       transform="translate(0,142.87499)"
       id="use4572"
       width="100%"
       height="100%" />
    <use
       x="0"
       y="0"
       inkscape:tiled-clone-of="#rect10"
       xlink:href="#rect10"
       transform="translate(0,148.16666)"
       id="use4574"
       width="100%"
       height="100%" />
    <use
       x="0"
       y="0"
       inkscape:tiled-clone-of="#rect10"
       xlink:href="#rect10"
       transform="translate(0,153.45833)"
       id="use4576"
       width="100%"
       height="100%" />
    <use
       x="0"
       y="0"
       inkscape:tiled-clone-of="#rect10"
       xlink:href="#rect10"
       transform="translate(0,158.74999)"
       id="use4578"
       width="100%"
       height="100%" />
    <use
       x="0"
       y="0"
       inkscape:tiled-clone-of="#rect10"
       xlink:href="#rect10"
       transform="translate(0,164.04166)"
       id="use4580"
       width="100%"
       height="100%" />
    <use
       x="0"
       y="0"
       inkscape:tiled-clone-of="#rect10"
       xlink:href="#rect10"
       transform="translate(0,169.33333)"
       id="use4582"
       width="100%"
       height="100%" />
    <use
       x="0"
       y="0"
       inkscape:tiled-clone-of="#rect10"
       xlink:href="#rect10"
       transform="translate(0,174.62499)"
       id="use4584"
       width="100%"
       height="100%" />
    <use
       x="0"
       y="0"
       inkscape:tiled-clone-of="#rect10"
       xlink:href="#rect10"
       transform="translate(0,179.91666)"
       id="use4586"
       width="100%"
       height="100%" />
    <use
       x="0"
       y="0"
       inkscape:tiled-clone-of="#rect10"
       xlink:href="#rect10"
       transform="translate(0,185.20833)"
       id="use4588"
       width="100%"
       height="100%" />
    <use
       x="0"
       y="0"
       inkscape:tiled-clone-of="#rect10"
       xlink:href="#rect10"
       transform="translate(0,190.49999)"
       id="use4590"
       width="100%"
       height="100%" />
    <use
       x="0"
       y="0"
       inkscape:tiled-clone-of="#rect10"
       xlink:href="#rect10"
       transform="translate(0,195.79166)"
       id="use4592"
       width="100%"
       height="100%" />
    <use
       x="0"
       y="0"
       inkscape:tiled-clone-of="#rect10"
       xlink:href="#rect10"
       transform="translate(0,201.08332)"
       id="use4594"
       width="100%"
       height="100%" />
    <use
       x="0"
       y="0"
       inkscape:tiled-clone-of="#rect10"
       xlink:href="#rect10"
       transform="translate(0,206.37499)"
       id="use4596"
       width="100%"
       height="100%" />
    <use
       x="0"
       y="0"
       inkscape:tiled-clone-of="#rect10"
       xlink:href="#rect10"
       transform="translate(0,211.66666)"
       id="use4598"
       width="100%"
       height="100%" />
    <use
       x="0"
       y="0"
       inkscape:tiled-clone-of="#rect10"
       xlink:href="#rect10"
       transform="translate(0,216.95832)"
       id="use4600"
       width="100%"
       height="100%" />
    <use
       x="0"
       y="0"
       inkscape:tiled-clone-of="#rect10"
       xlink:href="#rect10"
       transform="translate(0,222.24999)"
       id="use4602"
       width="100%"
       height="100%" />
    <use
       x="0"
       y="0"
       inkscape:tiled-clone-of="#rect10"
       xlink:href="#rect10"
       transform="translate(0,227.54166)"
       id="use4604"
       width="100%"
       height="100%" />
    <use
       x="0"
       y="0"
       inkscape:tiled-clone-of="#rect10"
       xlink:href="#rect10"
       transform="translate(0,232.83332)"
       id="use4606"
       width="100%"
       height="100%" />
    <use
       x="0"
       y="0"
       inkscape:tiled-clone-of="#rect10"
       xlink:href="#rect10"
       transform="translate(0,238.12499)"
       id="use4608"
       width="100%"
       height="100%" />
    <use
       x="0"
       y="0"
       inkscape:tiled-clone-of="#rect10"
       xlink:href="#rect10"
       transform="translate(0,243.41666)"
       id="use4610"
       width="100%"
       height="100%" />
    <use
       x="0"
       y="0"
       inkscape:tiled-clone-of="#rect10"
       xlink:href="#rect10"
       transform="translate(0,248.70832)"
       id="use4612"
       width="100%"
       height="100%" />
    <use
       x="0"
       y="0"
       inkscape:tiled-clone-of="#rect10"
       xlink:href="#rect10"
       transform="translate(0,253.99999)"
       id="use4614"
       width="100%"
       height="100%" />
    <use
       x="0"
       y="0"
       inkscape:tiled-clone-of="#rect10"
       xlink:href="#rect10"
       transform="translate(0,259.29166)"
       id="use4616"
       width="100%"
       height="100%" />
    <use
       x="0"
       y="0"
       inkscape:tiled-clone-of="#rect10"
       xlink:href="#rect10"
       transform="translate(0,264.58332)"
       id="use4618"
       width="100%"
       height="100%" />
    <use
       x="0"
       y="0"
       inkscape:tiled-clone-of="#rect10"
       xlink:href="#rect10"
       transform="translate(0,269.87499)"
       id="use4620"
       width="100%"
       height="100%" />
    <use
       x="0"
       y="0"
       inkscape:tiled-clone-of="#rect10"
       xlink:href="#rect10"
       transform="translate(0,275.16665)"
       id="use4622"
       width="100%"
       height="100%" />
    <use
       x="0"
       y="0"
       inkscape:tiled-clone-of="#rect10"
       xlink:href="#rect10"
       transform="translate(0,280.45832)"
       id="use4624"
       width="100%"
       height="100%" />
    <use
       x="0"
       y="0"
       inkscape:tiled-clone-of="#rect10"
       xlink:href="#rect10"
       transform="translate(0,285.74999)"
       id="use4626"
       width="100%"
       height="100%" />
    <use
       x="0"
       y="0"
       inkscape:tiled-clone-of="#rect10"
       xlink:href="#rect10"
       transform="translate(0,291.04165)"
       id="use4628"
       width="100%"
       height="100%" />
    <use
       x="0"
       y="0"
       inkscape:tiled-clone-of="#rect10"
       xlink:href="#rect10"
       transform="translate(0,296.33332)"
       id="use4630"
       width="100%"
       height="100%" />
    <use
       x="0"
       y="0"
       inkscape:tiled-clone-of="#rect10"
       xlink:href="#rect10"
       transform="translate(0,301.62499)"
       id="use4632"
       width="100%"
       height="100%" />
    <use
       x="0"
       y="0"
       inkscape:tiled-clone-of="#rect10"
       xlink:href="#rect10"
       transform="translate(0,306.91665)"
       id="use4634"
       width="100%"
       height="100%" />
    <use
       x="0"
       y="0"
       inkscape:tiled-clone-of="#rect10"
       xlink:href="#rect10"
       transform="translate(0,312.20832)"
       id="use4636"
       width="100%"
       height="100%" />
    <use
       x="0"
       y="0"
       inkscape:tiled-clone-of="#rect10"
       xlink:href="#rect10"
       transform="translate(0,317.49999)"
       id="use4638"
       width="100%"
       height="100%" />
    <use
       x="0"
       y="0"
       inkscape:tiled-clone-of="#rect10"
       xlink:href="#rect10"
       transform="translate(0,322.79165)"
       id="use4640"
       width="100%"
       height="100%" />
    <use
       x="0"
       y="0"
       inkscape:tiled-clone-of="#rect10"
       xlink:href="#rect10"
       transform="translate(0,328.08332)"
       id="use4642"
       width="100%"
       height="100%" />
    <use
       x="0"
       y="0"
       inkscape:tiled-clone-of="#rect10"
       xlink:href="#rect10"
       transform="translate(0,333.37499)"
       id="use4644"
       width="100%"
       height="100%" />
  </g>
</svg>
